<svg width="14" height="14" viewBox="0 0 14 14" fill="none" xmlns="http://www.w3.org/2000/svg">
<path fill-rule="evenodd" clip-rule="evenodd" d="M12.44 0H1.56C1.14721 0.000261392 0.751341 0.164025 0.458984 0.455444C0.166628 0.746864 0.00158656 1.1422 0 1.55499V4.66602H1.56V1.55499H12.44V12.444H1.56V9.33301H0V12.444C0.00158565 12.8569 0.166595 13.2524 0.458923 13.5439C0.751251 13.8355 1.14711 13.9995 1.56 14H12.44C12.8529 13.9995 13.2488 13.8355 13.5411 13.5439C13.8335 13.2524 13.9984 12.8569 14 12.444V1.55499C13.9984 1.1422 13.8334 0.746864 13.541 0.455444C13.2487 0.164025 12.8528 0.000261392 12.44 0Z" fill="#009846"/>
<path d="M6.78998 10.887C6.60176 10.8865 6.41789 10.8306 6.26111 10.7265C6.10432 10.6224 5.98157 10.4745 5.90808 10.3012C5.83459 10.1279 5.8136 9.93687 5.84772 9.75177C5.88184 9.56667 5.96953 9.3957 6.09998 9.26001L7.10812 8.18701H0V6.21899H7.49759L6.09998 4.742C5.92376 4.5572 5.828 4.3101 5.83362 4.05481C5.83924 3.79952 5.94582 3.55687 6.13 3.38C6.22024 3.29262 6.3269 3.224 6.44385 3.17816C6.56079 3.13232 6.6857 3.11019 6.81128 3.11298C6.93686 3.11577 7.06062 3.14347 7.17542 3.19446C7.29021 3.24545 7.39372 3.31867 7.47998 3.40997L10.24 6.32501C10.4123 6.5027 10.5096 6.73996 10.5114 6.98749C10.5133 7.23501 10.4196 7.47373 10.25 7.65399L7.47998 10.587C7.39139 10.6812 7.28453 10.7565 7.16589 10.808C7.04726 10.8596 6.91934 10.8865 6.78998 10.887Z" fill="#009846"/>
</svg>
